<?xml version="1.0" encoding="UTF-8" standalone="no"?>
<!-- Generator: Adobe Illustrator 21.0.0, SVG Export Plug-In . SVG Version: 6.00 Build 0)  -->

<svg
   xmlns:dc="http://purl.org/dc/elements/1.1/"
   xmlns:cc="http://creativecommons.org/ns#"
   xmlns:rdf="http://www.w3.org/1999/02/22-rdf-syntax-ns#"
   xmlns:svg="http://www.w3.org/2000/svg"
   xmlns="http://www.w3.org/2000/svg"
   xmlns:sodipodi="http://sodipodi.sourceforge.net/DTD/sodipodi-0.dtd"
   xmlns:inkscape="http://www.inkscape.org/namespaces/inkscape"
   version="1.1"
   id="Layer_1"
   x="0px"
   y="0px"
   viewBox="0 0 1200 1200"
   xml:space="preserve"
   inkscape:version="0.91+devel+osxmenu r12898"
   sodipodi:docname="reliefsupports_fb.svg"
   width="1200"
   height="1200"><metadata
     id="metadata8343"><rdf:RDF><cc:Work
         rdf:about=""><dc:format>image/svg+xml</dc:format><dc:type
           rdf:resource="http://purl.org/dc/dcmitype/StillImage" /><dc:title></dc:title></cc:Work></rdf:RDF></metadata><defs
     id="defs8341"><filter
       style="color-interpolation-filters:sRGB"
       id="filter3941-9"
       width="1.96"
       y="-0.47999999"
       x="-0.47999999"
       height="1.96"><feGaussianBlur
         id="feGaussianBlur3943-4"
         stdDeviation="13.142858" /></filter><filter
       style="color-interpolation-filters:sRGB"
       id="filter9089"
       width="1.96"
       y="-0.47999999"
       x="-0.47999999"
       height="1.96"><feGaussianBlur
         id="feGaussianBlur9091"
         stdDeviation="13.142858" /></filter></defs><sodipodi:namedview
     pagecolor="#ffffff"
     bordercolor="#666666"
     borderopacity="1"
     objecttolerance="10"
     gridtolerance="10"
     guidetolerance="10"
     inkscape:pageopacity="0"
     inkscape:pageshadow="2"
     inkscape:window-width="1920"
     inkscape:window-height="1150"
     id="namedview8339"
     showgrid="false"
     inkscape:zoom="0.47724946"
     inkscape:cx="997.68359"
     inkscape:cy="522.89641"
     inkscape:window-x="332"
     inkscape:window-y="360"
     inkscape:window-maximized="0"
     inkscape:current-layer="Layer_1" /><style
     type="text/css"
     id="style8307">
	.st0{fill:none;}
	.st1{fill:none;stroke:#000000;stroke-width:3;stroke-miterlimit:10;}
</style><rect
     style="opacity:1;fill:#ffffff;fill-opacity:1;stroke:none;stroke-width:4.27341366;stroke-linecap:round;stroke-linejoin:round;stroke-miterlimit:10;stroke-dasharray:none;stroke-dashoffset:0;stroke-opacity:1"
     id="rect16924"
     width="1201.6013"
     height="663.76996"
     x="1650.5352"
     y="131.74527"
     ry="261.577"
     rx="0" /><rect
     style="opacity:1;fill:#1a1a1a;fill-opacity:1;stroke:none;stroke-width:2.82035542;stroke-linecap:round;stroke-linejoin:round;stroke-miterlimit:10;stroke-dasharray:none;stroke-dashoffset:0;stroke-opacity:1"
     id="rect8381-4-7-7-4"
     width="113.24714"
     height="106.53927"
     x="1472.8684"
     y="1645.3147"
     ry="0"
     rx="0"
     transform="rotate(-28.697278)" /><rect
     style="opacity:1;fill:#1a1a1a;fill-opacity:1;stroke:none;stroke-width:2.82035542;stroke-linecap:round;stroke-linejoin:round;stroke-miterlimit:10;stroke-dasharray:none;stroke-dashoffset:0;stroke-opacity:1"
     id="rect8381-4-7-7"
     width="113.24714"
     height="106.53927"
     x="2496.5515"
     y="-829.12299"
     ry="0"
     rx="0"
     transform="rotate(32.91904)" /><g
     id="XMLID_442_-6"
     transform="matrix(5.5138301,0,0,5.5138301,1444.0924,-917.24342)"><path
       id="XMLID_444_-3"
       class="st1"
       d="m -261.27896,307.36293 c 9,0 9,6 18,6 9,0 9,-6 18,-6 9,0 9,6 18,6 9,0 9,-6 18,-6 9,0 9,6 18,6 9,0 9,-6 18,-6 9,0 9,6 18,6 9,0 9,-6 18,-6 9,0 9,6 17.999997,6 9,0 9,-6 18,-6 9,0 9,6 18,6 9,0 10.868533,-7.12112 19.868533,-7.12112 l 0.0012,78.25206 -217.68405,-0.18685 z"
       inkscape:connector-curvature="0"
       style="fill:#2a7fff;stroke:none;stroke-width:3;stroke-miterlimit:10"
       sodipodi:nodetypes="cssssssssssscccc" /></g><flowRoot
     xml:space="preserve"
     id="flowRoot16709"
     style="font-style:normal;font-weight:normal;font-size:10.66666698px;line-height:125%;font-family:sans-serif;letter-spacing:0px;word-spacing:0px;fill:#000000;fill-opacity:1;stroke:none;stroke-width:1px;stroke-linecap:butt;stroke-linejoin:miter;stroke-opacity:1"
     transform="translate(48.3)"><flowRegion
       id="flowRegion16711"><rect
         id="rect16713"
         width="886.32892"
         height="984.80994"
         x="1655.3188"
         y="227.76212" /></flowRegion><flowPara
       id="flowPara16715"
       style="font-style:normal;font-variant:normal;font-weight:800;font-stretch:normal;font-size:53.33333206px;font-family:'Post No Bills Colombo';-inkscape-font-specification:'Post No Bills Colombo Ultra-Bold'">ගිලෙන්න යන මිනිස්සුන්ට </flowPara><flowPara
       style="font-style:normal;font-variant:normal;font-weight:800;font-stretch:normal;font-size:53.33333206px;font-family:'Post No Bills Colombo';-inkscape-font-specification:'Post No Bills Colombo Ultra-Bold'"
       id="flowPara16719">පිදුරු ගස් වෙනුවට </flowPara><flowPara
       id="flowPara16717"
       style="font-style:normal;font-variant:normal;font-weight:800;font-stretch:normal;font-size:53.33333206px;font-family:'Post No Bills Colombo';-inkscape-font-specification:'Post No Bills Colombo Ultra-Bold'">වැදගත් දේ අවශ්‍යම තැනට දෙන්න </flowPara></flowRoot><text
     xml:space="preserve"
     style="font-style:normal;font-variant:normal;font-weight:normal;font-stretch:normal;font-size:54.79430389px;line-height:125%;font-family:'Source Sans Pro';-inkscape-font-specification:'Source Sans Pro';letter-spacing:0px;word-spacing:0px;fill:#333333;fill-opacity:1;stroke:none;stroke-width:5.13696575px;stroke-linecap:butt;stroke-linejoin:miter;stroke-opacity:1"
     x="1704.6699"
     y="600.21649"
     id="text8428-8"
     sodipodi:linespacing="125%"><tspan
       sodipodi:role="line"
       id="tspan8430-5"
       x="1704.6699"
       y="600.21649"
       style="font-style:normal;font-variant:normal;font-weight:normal;font-stretch:normal;font-family:'Source Sans Pro';-inkscape-font-specification:'Source Sans Pro';fill:#333333;stroke-width:5.13696575px">#FloodSL</tspan></text>
<text
     xml:space="preserve"
     style="font-style:normal;font-variant:normal;font-weight:normal;font-stretch:normal;font-size:97.62870789px;line-height:125%;font-family:'Source Sans Pro';-inkscape-font-specification:'Source Sans Pro';letter-spacing:0px;word-spacing:0px;fill:#ff0000;fill-opacity:1;stroke:none;stroke-width:9.15269089px;stroke-linecap:butt;stroke-linejoin:miter;stroke-opacity:1"
     x="1699.1249"
     y="521.48322"
     id="text8428-7-5"
     sodipodi:linespacing="125%"><tspan
       sodipodi:role="line"
       id="tspan8430-9-2"
       x="1699.1249"
       y="521.48322"
       style="font-style:normal;font-variant:normal;font-weight:normal;font-stretch:normal;font-family:'Source Sans Pro';-inkscape-font-specification:'Source Sans Pro';fill:#ff0000;stroke-width:9.15269089px">ReliefSupports.org</tspan></text>
<text
     xml:space="preserve"
     style="font-style:normal;font-variant:normal;font-weight:normal;font-stretch:normal;font-size:54.79430389px;line-height:125%;font-family:'Source Sans Pro';-inkscape-font-specification:'Source Sans Pro';letter-spacing:0px;word-spacing:0px;fill:#333333;fill-opacity:1;stroke:none;stroke-width:5.13696575px;stroke-linecap:butt;stroke-linejoin:miter;stroke-opacity:1"
     x="1944.0992"
     y="600.17975"
     id="text8428-9-3"
     sodipodi:linespacing="125%"><tspan
       sodipodi:role="line"
       id="tspan8430-4-9"
       x="1944.0992"
       y="600.17975"
       style="font-style:normal;font-variant:normal;font-weight:normal;font-stretch:normal;font-family:'Source Sans Pro';-inkscape-font-specification:'Source Sans Pro';fill:#333333;stroke-width:5.13696575px">#reliefSupports</tspan></text>
<rect
     style="opacity:1;fill:#1a1a1a;fill-opacity:1;stroke:none;stroke-width:2.32215643;stroke-linecap:round;stroke-linejoin:round;stroke-miterlimit:10;stroke-dasharray:none;stroke-dashoffset:0;stroke-opacity:1"
     id="rect8381-4-7-1-2"
     width="93.242706"
     height="87.719742"
     x="1244.5579"
     y="1378.629"
     ry="0"
     rx="0"
     transform="rotate(-23.863472)" /><g
     id="XMLID_442_-6-6"
     transform="matrix(5.5138301,0,0,5.5138301,3092.0274,-961.1215)"><path
       id="XMLID_444_-3-1"
       class="st1"
       d="m -261.27896,307.36293 c 9,0 9,6 18,6 9,0 9,-6 18,-6 9,0 9,6 18,6 9,0 9,-6 18,-6 9,0 9,6 18,6 9,0 9,-6 18,-6 9,0 9,6 18,6 9,0 9,-6 18,-6 9,0 9,6 17.999997,6 9,0 9,-6 18,-6 9,0 9,6 18,6 9,0 10.868533,-7.12112 19.868533,-7.12112 l 0.0012,78.25206 -217.68405,-0.18685 z"
       inkscape:connector-curvature="0"
       style="fill:#2a7fff;stroke:none;stroke-width:3;stroke-miterlimit:10"
       sodipodi:nodetypes="cssssssssssscccc" /></g><g
     id="XMLID_439_-6"
     transform="matrix(5.5558822,0,0,5.5558822,3590.7278,-1000.1153)"
     style="opacity:0.528;stroke:#0000de;stroke-width:0.54421997;stroke-miterlimit:10;stroke-dasharray:none;stroke-opacity:1"><path
       id="XMLID_441_-5"
       class="st1"
       d="m -349.1,321.1 c 9,0 9,6 18,6 9,0 9,-6 18,-6 9,0 9,6 18,6 9,0 9,-6 18,-6 9,0 9,6 18,6 9,0 9,-6 18,-6 9,0 9,6 18,6 9,0 9,-6 18,-6 9,0 9,6 18,6 9,0 9,-6 18,-6 9,0 9,6 18,6 9,0 9,-6 18,-6"
       inkscape:connector-curvature="0"
       style="fill:none;stroke:#0000de;stroke-width:0.54421997;stroke-miterlimit:10;stroke-dasharray:none;stroke-opacity:1" /></g><g
     id="XMLID_436_-5"
     transform="matrix(5.5558822,0,0,5.5558822,3590.7278,-1000.1153)"
     style="opacity:0.528;stroke:#0000de;stroke-width:0.54421997;stroke-miterlimit:10;stroke-dasharray:none;stroke-opacity:1"><path
       id="XMLID_438_-2"
       class="st1"
       d="m -349.1,331.1 c 9,0 9,6 18,6 9,0 9,-6 18,-6 9,0 9,6 18,6 9,0 9,-6 18,-6 9,0 9,6 18,6 9,0 9,-6 18,-6 9,0 9,6 18,6 9,0 9,-6 18,-6 9,0 9,6 18,6 9,0 9,-6 18,-6 9,0 9,6 18,6 9,0 9,-6 18,-6"
       inkscape:connector-curvature="0"
       style="fill:none;stroke:#0000de;stroke-width:0.54421997;stroke-miterlimit:10;stroke-dasharray:none;stroke-opacity:1" /></g><g
     id="XMLID_433_-4"
     transform="matrix(5.5558822,0,0,5.5558822,3590.7278,-1000.1153)"
     style="opacity:0.528;stroke:#0000de;stroke-width:0.54421997;stroke-miterlimit:10;stroke-dasharray:none;stroke-opacity:1"><path
       id="XMLID_435_-9"
       class="st1"
       d="m -349.1,341.1 c 9,0 9,6 18,6 9,0 9,-6 18,-6 9,0 9,6 18,6 9,0 9,-6 18,-6 9,0 9,6 18,6 9,0 9,-6 18,-6 9,0 9,6 18,6 9,0 9,-6 18,-6 9,0 9,6 18,6 9,0 9,-6 18,-6 9,0 9,6 18,6 9,0 9,-6 18,-6"
       inkscape:connector-curvature="0"
       style="fill:none;stroke:#0000de;stroke-width:0.54421997;stroke-miterlimit:10;stroke-dasharray:none;stroke-opacity:1" /></g><g
     id="XMLID_430_-32"
     transform="matrix(5.5558822,0,0,5.5558822,3590.7278,-1000.1153)"
     style="opacity:0.528;stroke:#0000de;stroke-width:0.54421997;stroke-miterlimit:10;stroke-dasharray:none;stroke-opacity:1"><path
       id="XMLID_432_-3"
       class="st1"
       d="m -349.1,351.1 c 9,0 9,6 18,6 9,0 9,-6 18,-6 9,0 9,6 18,6 9,0 9,-6 18,-6 9,0 9,6 18,6 9,0 9,-6 18,-6 9,0 9,6 18,6 9,0 9,-6 18,-6 9,0 9,6 18,6 9,0 9,-6 18,-6 9,0 9,6 18,6 9,0 9,-6 18,-6"
       inkscape:connector-curvature="0"
       style="fill:none;stroke:#0000de;stroke-width:0.54421997;stroke-miterlimit:10;stroke-dasharray:none;stroke-opacity:1" /></g><g
     id="XMLID_430_-3-6"
     transform="matrix(5.5558822,0,0,5.5558822,3594.2089,-942.7744)"
     style="opacity:0.528;stroke:#0000de;stroke-width:0.54421997;stroke-miterlimit:10;stroke-dasharray:none;stroke-opacity:1"><path
       id="XMLID_432_-5-1"
       class="st1"
       d="m -349.1,351.1 c 9,0 9,6 18,6 9,0 9,-6 18,-6 9,0 9,6 18,6 9,0 9,-6 18,-6 9,0 9,6 18,6 9,0 9,-6 18,-6 9,0 9,6 18,6 9,0 9,-6 18,-6 9,0 9,6 18,6 9,0 9,-6 18,-6 9,0 9,6 18,6 9,0 9,-6 18,-6"
       inkscape:connector-curvature="0"
       style="fill:none;stroke:#0000de;stroke-width:0.54421997;stroke-miterlimit:10;stroke-dasharray:none;stroke-opacity:1" /></g><g
     id="XMLID_430_-3-0-68"
     transform="matrix(5.5558822,0,0,5.5558822,3594.2089,-890.3344)"
     style="opacity:0.528;stroke:#0000de;stroke-width:0.54421997;stroke-miterlimit:10;stroke-dasharray:none;stroke-opacity:1"><path
       id="XMLID_432_-5-5-3"
       class="st1"
       d="m -349.1,351.1 c 9,0 9,6 18,6 9,0 9,-6 18,-6 9,0 9,6 18,6 9,0 9,-6 18,-6 9,0 9,6 18,6 9,0 9,-6 18,-6 9,0 9,6 18,6 9,0 9,-6 18,-6 9,0 9,6 18,6 9,0 9,-6 18,-6 9,0 9,6 18,6 9,0 9,-6 18,-6"
       inkscape:connector-curvature="0"
       style="fill:none;stroke:#0000de;stroke-width:0.54421997;stroke-miterlimit:10;stroke-dasharray:none;stroke-opacity:1" /></g><g
     id="XMLID_430_-3-0-6-5"
     transform="matrix(5.5558822,0,0,5.5558822,3595.2775,-845.776)"
     style="opacity:0.528;stroke:#0000de;stroke-width:0.54421997;stroke-miterlimit:10;stroke-dasharray:none;stroke-opacity:1"><path
       id="XMLID_432_-5-5-4-5"
       class="st1"
       d="m -349.1,351.1 c 9,0 9,6 18,6 9,0 9,-6 18,-6 9,0 9,6 18,6 9,0 9,-6 18,-6 9,0 9,6 18,6 9,0 9,-6 18,-6 9,0 9,6 18,6 9,0 9,-6 18,-6 9,0 9,6 18,6 9,0 9,-6 18,-6 9,0 9,6 18,6 9,0 9,-6 18,-6"
       inkscape:connector-curvature="0"
       style="fill:none;stroke:#0000de;stroke-width:0.54421997;stroke-miterlimit:10;stroke-dasharray:none;stroke-opacity:1" /></g><g
     id="XMLID_439_-3-1"
     transform="matrix(5.5558822,0,0,5.5558822,3587.9219,-1049.0086)"
     style="opacity:0.528;stroke:#0000de;stroke-width:0.54421997;stroke-miterlimit:10;stroke-dasharray:none;stroke-opacity:1"><path
       id="XMLID_441_-2-7"
       class="st1"
       d="m -349.1,321.1 c 9,0 9,6 18,6 9,0 9,-6 18,-6 9,0 9,6 18,6 9,0 9,-6 18,-6 9,0 9,6 18,6 9,0 9,-6 18,-6 9,0 9,6 18,6 9,0 9,-6 18,-6 9,0 9,6 18,6 9,0 9,-6 18,-6 9,0 9,6 18,6 9,0 9,-6 18,-6"
       inkscape:connector-curvature="0"
       style="fill:none;stroke:#0000de;stroke-width:0.54421997;stroke-miterlimit:10;stroke-dasharray:none;stroke-opacity:1" /></g></svg>